<svg xmlns="http://www.w3.org/2000/svg" xmlns:xlink="http://www.w3.org/1999/xlink" width="185.456" height="128.241" viewBox="0 0 185.456 128.241">
  <defs>
    <clipPath id="clip-path">
      <path id="Clip_20" data-name="Clip 20" d="M0,0H73.936V73.043H0Z" fill="none"/>
    </clipPath>
  </defs>
  <g id="flavorcup_logo_header" transform="translate(-95.367 -32.386)">
    <g id="Grupo_116" data-name="Grupo 116" transform="translate(147.779 32.386)">
      <path id="Fill_1" data-name="Fill 1" d="M.25,2.079H0V.063H0A1.191,1.191,0,0,0,.2.036,1.66,1.66,0,0,1,.5,0,.76.76,0,0,1,1.06.189c.125.063.125.252.125.378a.546.546,0,0,1-.374.5.647.647,0,0,1,.312.378c.016.066.033.127.048.186a1.741,1.741,0,0,1,.077.381H1A.458.458,0,0,1,.928,1.8a1.794,1.794,0,0,0-.055-.228C.811,1.324.685,1.2.5,1.2H.25v.882Zm0-1.89V.945H.5C.768.945.936.8.936.567S.768.189.5.189Z" transform="translate(66.929 77.095)" fill="#e40647"/>
      <path id="Fill_3" data-name="Fill 3" d="M1.663,3.327A1.663,1.663,0,1,1,3.327,1.663,1.665,1.665,0,0,1,1.663,3.327Zm0-3.1A1.419,1.419,0,0,0,.229,1.663,1.419,1.419,0,0,0,1.663,3.1,1.419,1.419,0,0,0,3.1,1.663,1.275,1.275,0,0,0,2.752.695,1.487,1.487,0,0,0,1.663.229Z" transform="translate(65.681 76.263)" fill="#e40647"/>
      <path id="Fill_5" data-name="Fill 5" d="M0,18.548a17.554,17.554,0,0,0,14.77,0C21.806,15.131,25.039,4.881,15.657,0c0,0,5.705.671,7.163,5.735a12.633,12.633,0,0,1-7.353,15.07C6.846,24.528,1.268,22.88,0,18.548" transform="translate(28.673 29.276)" fill="#8dbf44"/>
      <path id="Fill_7" data-name="Fill 7" d="M5.913.124a2.724,2.724,0,0,1,.629,3.34C5.472,5.338,2.39,5.865,0,4.342c0,0,5.472,5.976,8.995.234C12.391-1.165,5.913.124,5.913.124" transform="translate(35.326 34.681)" fill="#8dbf44"/>
      <path id="Fill_9" data-name="Fill 9" d="M56.311,22.293C52.718,38.366,35.558,48.4,17.965,44.71A34.122,34.122,0,0,1,0,34.671,33.728,33.728,0,0,0,27.381,48.651c16.974,0,31.284-11.393,33.329-28.328a1.988,1.988,0,0,1-.248-.862A26.261,26.261,0,0,0,51.789,0a28.1,28.1,0,0,1,4.522,22.293" transform="translate(9.13 20.128)" fill="#8dbf44"/>
      <path id="Fill_11" data-name="Fill 11" d="M13.068.077C5.862-.649,0,3.832,0,10.01c0,4.421,3.053,8.6,7.45,10.781a2.94,2.94,0,0,0,.183-.424,8.2,8.2,0,0,1-5.007-7.45c0-5.512,4.824-9.933,10.808-9.933A12.887,12.887,0,0,1,26.2,12.554C26.135,6.376,20.273.8,13.068.077" transform="translate(27.426 22.623)" fill="#8dbf44"/>
      <path id="Fill_13" data-name="Fill 13" d="M21.6,47.28C11.788,45.925,4.135,37.79,4.135,27.993c0-13.249,11.294-23.663,24.933-23.231a30.755,30.755,0,0,1,21.662,9.8C46.718,6.364,37.708.386,27.093.017,12.281-.476,0,10.061,0,23.556,0,35.264,9.257,45.062,21.477,47.4l.123-.123" transform="translate(14.951 6.406)" fill="#8dbf44"/>
      <path id="Fill_15" data-name="Fill 15" d="M36.623,38.671A36.6,36.6,0,0,1,0,1.977C0,.8.5,0,1.673,0A2.086,2.086,0,0,1,3.78,2.1a32.846,32.846,0,0,0,65.686,0A2.086,2.086,0,0,1,71.573,0c1.177,0,1.611.68,1.611,1.792A36.623,36.623,0,0,1,36.623,38.671" transform="translate(0.398 37.592)" fill="#e40647"/>
      <path id="Fill_17" data-name="Fill 17" d="M20.218,44.077A20.036,20.036,0,0,1,0,24.255C0,10.835,11.135,0,24.821,0,41.618,0,55.3,13.42,55.3,29.857a1.994,1.994,0,0,1-1.991,1.97,1.955,1.955,0,0,1-1.991-1.97c0-14.343-11.882-25.978-26.5-25.978A20.645,20.645,0,0,0,3.981,24.255,16.1,16.1,0,0,0,20.218,40.2,12.508,12.508,0,0,0,32.846,27.825a9.6,9.6,0,0,0-9.7-9.48,7.264,7.264,0,0,0-7.341,7.2A5.442,5.442,0,0,0,21.276,30.9a3.937,3.937,0,0,0,3.982-3.878,2.773,2.773,0,0,0-2.8-2.77A1.862,1.862,0,0,0,20.591,26.1a1.992,1.992,0,0,1-3.981,0A5.732,5.732,0,0,1,22.4,20.438a6.7,6.7,0,0,1,6.781,6.587,7.885,7.885,0,0,1-7.963,7.818,9.378,9.378,0,0,1-9.456-9.234A11.24,11.24,0,0,1,23.08,14.528,13.525,13.525,0,0,1,36.7,27.887c.124,8.926-7.341,16.19-16.485,16.19" transform="translate(18.278 10.148)" fill="#e40647"/>
      <g id="Group_21" data-name="Group 21" transform="translate(0)">
        <path id="Clip_20-2" data-name="Clip 20" d="M0,0H73.936V73.043H0Z" fill="none"/>
        <g id="Group_21-2" data-name="Group 21" clip-path="url(#clip-path)">
          <path id="Fill_19" data-name="Fill 19" d="M36.968,73.043C16.584,73.043,0,56.674,0,36.553A36.108,36.108,0,0,1,6.316,16.127,37.028,37.028,0,0,1,29.52.744a37.664,37.664,0,0,1,14.895,0,37.04,37.04,0,0,1,23.2,15.383,36.459,36.459,0,0,1,3.41,6.209,36.038,36.038,0,0,1,2.907,14.217C73.936,56.674,57.352,73.043,36.968,73.043Zm0-69.147a33.7,33.7,0,0,0-6.656.662A33.111,33.111,0,0,0,9.56,18.269a32.47,32.47,0,0,0-3.051,5.537,32.179,32.179,0,0,0,0,25.371A32.471,32.471,0,0,0,9.56,54.713a33.138,33.138,0,0,0,20.752,13.71,33.7,33.7,0,0,0,6.656.662,36.358,36.358,0,0,0,6.9-.657A34.5,34.5,0,0,0,50.3,66.523a32.915,32.915,0,0,0,5.79-3.057,31.587,31.587,0,0,0,5-4.11,30.507,30.507,0,0,0,6.627-10.1,32.887,32.887,0,0,0,2.316-12.769A33.01,33.01,0,0,0,36.968,3.9Z" transform="translate(0 0)" fill="#e40647"/>
        </g>
      </g>
      <path id="Fill_22" data-name="Fill 22" d="M7.9.51A5.681,5.681,0,0,0,1.241,1.984c-2.613,3.009-.5,6.2.871,5.9,0,.061-3.485-7,5.788-7.37" transform="translate(35.326 30.523)" fill="#8dbf44"/>
      <path id="Fill_24" data-name="Fill 24" d="M.27,1.466c0-.127-.235-.192,0-.192C2.215,3.44-.673,6.178.153,8.407c.884,2.357,3.889,1.783,4.95.128,1.061-1.72.884-2.929-.118-4.586-.53-.891-1.3-4.011.472-3.948" transform="translate(48.633 70.442)" fill="#e40647"/>
      <path id="Fill_26" data-name="Fill 26" d="M0,1.8c1.339.988.071,1.86.352,3.024.282.989,1.9,1.279,2.89.7,1.2-.7.916-2.093.563-3.024-.141-.407-.634-2.908.352-2.442" transform="translate(54.454 68.779)" fill="#e40647"/>
      <path id="Fill_28" data-name="Fill 28" d="M2.079,1.04A1.046,1.046,0,0,1,1.01,2.079,1,1,0,0,1,0,1.04,1.033,1.033,0,0,1,1.01,0,1.046,1.046,0,0,1,2.079,1.04" transform="translate(49.048 77.095)" fill="#fff"/>
      <path id="Fill_30" data-name="Fill 30" d="M1.247.6A.68.68,0,0,1,.6,1.247.6.6,0,0,1,0,.6.622.622,0,0,1,.6,0a.633.633,0,0,1,.649.6" transform="translate(55.286 72.521)" fill="#fff"/>
    </g>
    <path id="Fill_32" data-name="Fill 32" d="M5.987,16.831H13.7v5.406H5.987v15.6H0V0H15.8V5.405H5.987Z" transform="translate(95.367 121.956)" fill="#fff"/>
    <path id="Fill_34" data-name="Fill 34" d="M0,0H5.987V32.434H15.8V37.84H0Z" transform="translate(113.663 121.956)" fill="#fff"/>
    <path id="Fill_36" data-name="Fill 36" d="M21.207,37.84H15.094l-1.06-6.88H6.612L5.551,37.84H0L6.175,0h8.857l6.175,37.84ZM10.229,6.757l-2.807,19.1h5.8l-2.869-19.1Z" transform="translate(131.128 121.956)" fill="#fff"/>
    <path id="Fill_38" data-name="Fill 38" d="M10.4,30.837h.122L14.962,0h5.413L14.536,37.84H5.778L0,0H5.96Z" transform="translate(151.919 121.956)" fill="#fff"/>
    <path id="Fill_40" data-name="Fill 40" d="M9.148,38.671a11.377,11.377,0,0,1-3.923-.632,7.5,7.5,0,0,1-2.867-1.846A7.922,7.922,0,0,1,.6,33.207a12.74,12.74,0,0,1-.6-4.05V9.514a12.74,12.74,0,0,1,.6-4.05A7.922,7.922,0,0,1,2.357,2.478,7.5,7.5,0,0,1,5.224.632,11.377,11.377,0,0,1,9.148,0a11.379,11.379,0,0,1,3.924.632,7.5,7.5,0,0,1,2.868,1.846A7.922,7.922,0,0,1,17.7,5.464a12.741,12.741,0,0,1,.6,4.05V29.157a12.741,12.741,0,0,1-.6,4.05,7.922,7.922,0,0,1-1.759,2.986,7.5,7.5,0,0,1-2.868,1.846A11.379,11.379,0,0,1,9.148,38.671ZM9.086,5.4a2.879,2.879,0,0,0-2.279.859,4.248,4.248,0,0,0-.832,2.885V29.525a4.249,4.249,0,0,0,.832,2.885,2.916,2.916,0,0,0,2.279.86,2.917,2.917,0,0,0,2.279-.86,4.249,4.249,0,0,0,.832-2.885V9.146a4.247,4.247,0,0,0-.832-2.885A2.88,2.88,0,0,0,9.086,5.4Z" transform="translate(174.373 121.956)" fill="#fff"/>
    <path id="Fill_42" data-name="Fill 42" d="M5.9,37.84H0V0H8.875A12.665,12.665,0,0,1,12.8.542a6.585,6.585,0,0,1,2.7,1.63c1.391,1.428,2.067,3.57,2.067,6.549v2.949c0,3.915-1.253,6.406-3.829,7.617v.123a5.57,5.57,0,0,1,3.039,2.979,12.24,12.24,0,0,1,.851,5.007v5.836a10.988,10.988,0,0,0,.669,4.606H12.279l-.046-.149a12.425,12.425,0,0,1-.5-4.52V27.213a5.762,5.762,0,0,0-.911-3.709A3.491,3.491,0,0,0,7.9,22.421H5.9V37.84ZM5.836,5.405v11.61H8.145a3.435,3.435,0,0,0,2.583-.868,4.316,4.316,0,0,0,.942-3.126V9.275a4.8,4.8,0,0,0-.714-2.949,2.66,2.66,0,0,0-2.265-.921Z" transform="translate(196.827 121.956)" fill="#fff"/>
    <path id="Fill_44" data-name="Fill 44" d="M17.88,24.123v5.033c0,6.077-3.042,9.514-8.94,9.514S0,35.234,0,29.157V9.514C0,3.437,3.042,0,8.94,0s8.94,3.437,8.94,9.514V13.2H12.168V9.146c0-2.7-1.18-3.744-3.1-3.744s-3.1,1.044-3.1,3.744V29.525c0,2.7,1.18,3.683,3.1,3.683s3.1-.982,3.1-3.683v-5.4Z" transform="translate(218.034 121.956)" fill="#fff"/>
    <path id="Fill_46" data-name="Fill 46" d="M6.022,0V29.438c0,2.726,1.18,3.718,3.1,3.718s3.1-.992,3.1-3.718V0h5.65V29.065c0,6.136-3.043,9.606-8.94,9.606S0,35.2,0,29.065V0Z" transform="translate(240.073 121.956)" fill="#fff"/>
    <path id="Fill_48" data-name="Fill 48" d="M6.043,37.84H0V0H8.847c2.981,0,5.263.811,6.783,2.411,1.493,1.572,2.251,3.9,2.251,6.925v4.914a13.365,13.365,0,0,1-.552,4.025A7.52,7.52,0,0,1,15.661,21.2a7.05,7.05,0,0,1-2.8,1.784,11.826,11.826,0,0,1-3.951.6H6.043Zm0-32.434V18.183H8.909a2.728,2.728,0,0,0,2.188-.768,4.156,4.156,0,0,0,.74-2.795V8.969a4.1,4.1,0,0,0-.763-2.8,2.717,2.717,0,0,0-2.165-.768Z" transform="translate(261.695 121.956)" fill="#fff"/>
    <path id="Fill_50" data-name="Fill 50" d="M.3,2.079H.06L0,.064H0A1.073,1.073,0,0,0,.191.037,1.489,1.489,0,0,1,.475,0,.7.7,0,0,1,1.01.19a.458.458,0,0,1,.179.377.542.542,0,0,1-.357.5.645.645,0,0,1,.3.379c.016.066.031.126.046.185a1.814,1.814,0,0,1,.073.382H1.01A.473.473,0,0,1,.943,1.8a1.886,1.886,0,0,0-.052-.229C.832,1.324.712,1.2.535,1.2H.3v.882ZM.238.19V.945H.475A.366.366,0,0,0,.891.567.369.369,0,0,0,.475.19Z" transform="translate(278.744 120.709)" fill="#fff"/>
    <path id="Fill_52" data-name="Fill 52" d="M1.663,3.327A1.663,1.663,0,1,1,3.327,1.663,1.665,1.665,0,0,1,1.663,3.327Zm0-3.1A1.419,1.419,0,0,0,.229,1.663,1.419,1.419,0,0,0,1.663,3.1,1.419,1.419,0,0,0,3.1,1.663,1.275,1.275,0,0,0,2.752.695,1.487,1.487,0,0,0,1.663.229Z" transform="translate(277.496 119.877)" fill="#fff"/>
  </g>
</svg>