<?xml version="1.0" encoding="utf-8"?>
<!-- Generator: Adobe Illustrator 22.0.1, SVG Export Plug-In . SVG Version: 6.00 Build 0)  -->
<svg version="1.1" id="Capa_1" xmlns="http://www.w3.org/2000/svg" xmlns:xlink="http://www.w3.org/1999/xlink" x="0px" y="0px"
	 viewBox="0 0 253.3 132.5" style="enable-background:new 0 0 253.3 132.5;" xml:space="preserve">
<style type="text/css">
	.st0{fill:#D31D4D;}
	.st1{fill:#FFFFFF;}
	.st2{enable-background:new    ;}
</style>
<g id="flavorcup_boton_nuestra_tienda" transform="translate(6587 -2960.92)">
	<g id="boton_nuestra_tienda" transform="translate(-6457 2960.92)">
		<path id="Trazado_3311" class="st0" d="M-130,0h233l20.3,18.7v95.5L103,132.5h-233V0z"/>
		<g id="Grupo_3924" transform="translate(16.651 37.763)">
			<path id="Trazado_5199" class="st1" d="M54.9,50.8h-8V39l2.2-14.3H65c0.6,0,1.1-0.5,1.1-1.1l0,0v-4.2c0-0.6-0.5-1.1-1.1-1.1l0,0
				H23c-0.6,0-1.1,0.5-1.1,1.1l0,0v4.2c0,0.6,0.5,1.1,1.1,1.1l0,0h15.9L41,39v11.8h-8c-0.6,0-1.1,0.5-1.1,1.1l0,0v3.5
				c0,0.6,0.5,1.1,1.1,1.1l0,0h21.9c0.6,0,1.1-0.5,1.1-1.1l0,0v-3.5C56,51.3,55.5,50.8,54.9,50.8L54.9,50.8z M53.8,54.3H34v-1.4
				h19.8V54.3z M43.1,38.7l-2.2-14h6l-2.2,14c0,0.1,0,0.1,0,0.2v11.9H43V38.9C43.1,38.8,43.1,38.8,43.1,38.7L43.1,38.7z M24,22.6
				v-2.1h39.9v2.1H24L24,22.6z"/>
			<path id="Trazado_5200" class="st1" d="M33.8,33.4c0-2.3-1.9-4.2-4.2-4.2H9.8L5.6,2.4C5.4,1,4.2,0,2.8,0C2.7,0,2.5,0,2.4,0
				C0.9,0.3-0.2,1.7,0,3.2l4.3,27.6c-1.4,1.9-1,4.5,0.8,5.9c0.3,0.2,0.5,0.4,0.8,0.5v18.1c0,0.6,0.5,1.1,1.1,1.1l0,0h3.5
				c0.6,0,1.1-0.5,1.1-1.1v-5.6h12.7v5.6c0,0.6,0.5,1.1,1.1,1.1l0,0H29c0.6,0,1.1-0.5,1.1-1.1l0,0V37.6
				C32.2,37.3,33.8,35.5,33.8,33.4z M30,35.4c-0.1,0-0.3,0-0.4,0H7.7c-1.2,0-2.1-0.9-2.1-2.1c0-1.2,0.9-2.1,2.1-2.1h21.9
				c1.2,0,2.1,0.9,2.1,2.1C31.7,34.3,31,35.2,30,35.4z M27.9,54.3h-1.4v-5.6c0-0.6-0.5-1.1-1.1-1.1l0,0H10.6c-0.6,0-1.1,0.5-1.1,1.1
				l0,0v5.6H8.2V37.6h1.4v7.6c0,0.6,0.5,1.1,1.1,1.1l0,0h14.9c0.6,0,1.1-0.5,1.1-1.1l0,0v-7.6h1.4L27.9,54.3z M2.7,2.1L2.7,2.1
				c0.4,0,0.7,0.3,0.8,0.6l4.1,26.4c-0.5,0-0.9,0.1-1.4,0.3L2.1,2.9C2.1,2.5,2.3,2.2,2.7,2.1L2.7,2.1z M11.7,37.6h12.7v6.6H11.7
				V37.6z"/>
			<path id="Trazado_5201" class="st1" d="M85.5,0c-0.1,0-0.3,0-0.4,0c-1.4,0-2.6,1-2.8,2.4l-4.2,26.8H58.3c-2.3,0-4.2,1.9-4.2,4.2
				c0,2.2,1.6,4,3.8,4.2v17.8c0,0.6,0.5,1.1,1.1,1.1l0,0h3.5c0.6,0,1.1-0.5,1.1-1.1l0,0v-5.6h12.7v5.6c0,0.6,0.5,1.1,1.1,1.1l0,0
				h3.5c0.6,0,1.1-0.5,1.1-1.1l0,0V37.2c2.1-0.9,3.1-3.4,2.2-5.5c-0.1-0.3-0.3-0.6-0.5-0.8L88,3.3C88.1,1.7,87,0.3,85.5,0z
				 M56.2,33.4c0-1.2,0.9-2.1,2.1-2.1h21.9c0.4,0,0.8,0.1,1.1,0.3c0.6,0.4,1,1.1,1,1.8c0,0.4-0.1,0.9-0.4,1.2
				c-0.4,0.5-1,0.9-1.7,0.9H58.3C57.2,35.4,56.2,34.5,56.2,33.4z M85.1,2.1c0.4,0,0.7,0.3,0.7,0.7v0.1l-4.1,26.5
				c-0.4-0.2-0.9-0.2-1.4-0.3l4.1-26.4C84.5,2.4,84.7,2.1,85.1,2.1L85.1,2.1z M63.5,37.6h12.7v6.6H63.5V37.6z M61.4,48.7v5.6H60
				V37.6h1.4v7.6c0,0.6,0.5,1.1,1.1,1.1l0,0h14.9c0.6,0,1.1-0.5,1.1-1.1l0,0v-7.6h1.4v16.7h-1.4v-5.6c0-0.6-0.5-1.1-1.1-1.1l0,0h-15
				C61.9,47.6,61.4,48.1,61.4,48.7L61.4,48.7L61.4,48.7z"/>
		</g>
	</g>
	<g class="st2">
		<path class="st1" d="M-6542,3007.8h3.6l2.8,10.9h0.1v-10.9h2.5v18.2h-2.9l-3.4-13.3h-0.1v13.3h-2.5v-18.2H-6542z"/>
		<path class="st1" d="M-6531,3021.7v-13.9h2.9v14.1c0,1.3,0.5,1.8,1.5,1.8s1.5-0.5,1.5-1.8v-14.1h2.8v13.9c0,2.9-1.5,4.6-4.3,4.6
			S-6531,3024.6-6531,3021.7z"/>
		<path class="st1" d="M-6520.5,3007.8h7.8v2.6h-4.9v4.8h3.9v2.6h-3.9v5.6h4.9v2.6h-7.8V3007.8z"/>
		<path class="st1" d="M-6511.5,3021.7v-1h2.7v1.2c0,1.3,0.6,1.8,1.5,1.8s1.5-0.5,1.5-1.8c0-1.5-0.6-2.5-2.4-4.1
			c-2.4-2.1-3.2-3.6-3.2-5.7c0-2.9,1.5-4.5,4.3-4.5s4.2,1.7,4.2,4.6v0.8h-2.7v-0.9c0-1.3-0.5-1.8-1.4-1.8s-1.4,0.5-1.4,1.7
			c0,1.3,0.6,2.3,2.5,3.9c2.4,2.1,3.1,3.6,3.1,5.8c0,3-1.5,4.6-4.3,4.6S-6511.5,3024.6-6511.5,3021.7z"/>
		<path class="st1" d="M-6499.1,3010.4h-3v-2.6h8.8v2.6h-3v15.6h-2.9v-15.6H-6499.1z"/>
		<path class="st1" d="M-6491.8,3007.8h4.2c3,0,4.2,1.4,4.2,4.2v1.1c0,1.9-0.6,3.1-1.9,3.6v0.1c1.4,0.4,1.9,1.8,1.9,3.8v3.2
			c0,0.9,0,1.5,0.3,2.2h-2.9c-0.2-0.5-0.3-0.8-0.3-2.2v-3.3c0-1.7-0.5-2.2-1.8-2.2h-1v7.8h-2.9v-18.3H-6491.8z M-6487.9,3015.6
			c1.1,0,1.7-0.5,1.7-1.9v-1.4c0-1.3-0.4-1.9-1.5-1.9h-1.3v5.2L-6487.9,3015.6L-6487.9,3015.6z"/>
		<path class="st1" d="M-6479.2,3007.8h3.9l3,18.2h-2.9l-0.5-3.6v0.1h-3.2l-0.5,3.6h-2.7L-6479.2,3007.8z M-6476,3020l-1.3-9h-0.1
			l-1.2,9H-6476z"/>
	</g>
	<g class="st2">
		<path class="st1" d="M-6524.6,3034.4h-3v-2.6h8.8v2.6h-3v15.6h-2.9v-15.6H-6524.6z"/>
		<path class="st1" d="M-6517.4,3031.8h2.9v18.2h-2.9V3031.8z"/>
		<path class="st1" d="M-6512.4,3031.8h7.8v2.6h-4.9v4.8h3.9v2.6h-3.9v5.6h4.9v2.6h-7.8V3031.8z"/>
		<path class="st1" d="M-6503,3031.8h3.6l2.8,10.9h0.1v-10.9h2.5v18.2h-2.9l-3.4-13.3h-0.1v13.3h-2.5v-18.2H-6503z"/>
		<path class="st1" d="M-6491.9,3031.8h4.4c2.9,0,4.3,1.6,4.3,4.5v9.2c0,2.9-1.4,4.5-4.3,4.5h-4.4V3031.8z M-6487.5,3047.4
			c0.9,0,1.5-0.5,1.5-1.8v-9.5c0-1.3-0.5-1.8-1.5-1.8h-1.5v13h1.5V3047.4z"/>
		<path class="st1" d="M-6479.2,3031.8h3.9l3,18.2h-2.9l-0.5-3.6v0.1h-3.2l-0.5,3.6h-2.7L-6479.2,3031.8z M-6476,3044l-1.3-9h-0.1
			l-1.2,9H-6476z"/>
	</g>
</g>
</svg>
