<?xml version="1.0" encoding="utf-8"?>
<!-- Generator: Adobe Illustrator 22.0.1, SVG Export Plug-In . SVG Version: 6.00 Build 0)  -->
<svg version="1.1" id="Capa_1" xmlns="http://www.w3.org/2000/svg" xmlns:xlink="http://www.w3.org/1999/xlink" x="0px" y="0px"
	 viewBox="0 0 253.3 132.5" style="enable-background:new 0 0 253.3 132.5;" xml:space="preserve">
<style type="text/css">
	.st0{fill:#85B944;}
	.st1{enable-background:new    ;}
	.st2{fill:#FFFFFF;}
</style>
<g id="flavorcup_boton_nuestros_productos" transform="translate(6586.991 -2691)">
	<g id="boton_nuestros_productos" transform="translate(-6456.991 2691)">
		<path id="Trazado_3309" class="st0" d="M-130,0h233l20.3,18.7v95.5L103,132.5h-233V0z"/>
	</g>
	<g class="st1">
		<path class="st2" d="M-6537.7,2738.8h3.6l2.8,10.9h0.1v-10.9h2.5v18.2h-2.9l-3.4-13.3h-0.1v13.3h-2.5v-18.2H-6537.7z"/>
		<path class="st2" d="M-6526.7,2752.7v-13.9h2.9v14.1c0,1.3,0.5,1.8,1.5,1.8s1.5-0.5,1.5-1.8v-14.1h2.8v13.9c0,2.9-1.5,4.6-4.3,4.6
			S-6526.7,2755.6-6526.7,2752.7z"/>
		<path class="st2" d="M-6516.1,2738.8h7.8v2.6h-4.9v4.8h3.9v2.6h-3.9v5.6h4.9v2.6h-7.8V2738.8z"/>
		<path class="st2" d="M-6507.1,2752.7v-1h2.7v1.2c0,1.3,0.6,1.8,1.5,1.8s1.5-0.5,1.5-1.8c0-1.5-0.6-2.5-2.4-4.1
			c-2.4-2.1-3.2-3.6-3.2-5.7c0-2.9,1.5-4.5,4.3-4.5s4.2,1.7,4.2,4.6v0.8h-2.7v-0.9c0-1.3-0.5-1.8-1.4-1.8s-1.4,0.5-1.4,1.7
			c0,1.3,0.6,2.3,2.5,3.9c2.4,2.1,3.1,3.6,3.1,5.8c0,3-1.5,4.6-4.3,4.6S-6507.1,2755.6-6507.1,2752.7z"/>
		<path class="st2" d="M-6494.7,2741.4h-3v-2.6h8.8v2.6h-3v15.6h-2.9v-15.6H-6494.7z"/>
		<path class="st2" d="M-6487.5,2738.8h4.2c3,0,4.2,1.4,4.2,4.2v1.1c0,1.9-0.6,3.1-1.9,3.6v0.1c1.4,0.4,1.9,1.8,1.9,3.8v3.2
			c0,0.9,0,1.5,0.3,2.2h-2.9c-0.2-0.5-0.3-0.8-0.3-2.2v-3.3c0-1.7-0.5-2.2-1.8-2.2h-1v7.8h-2.9v-18.3H-6487.5z M-6483.6,2746.6
			c1.1,0,1.7-0.5,1.7-1.9v-1.4c0-1.3-0.4-1.9-1.5-1.9h-1.3v5.2L-6483.6,2746.6L-6483.6,2746.6z"/>
		<path class="st2" d="M-6477.2,2752.7v-9.6c0-2.9,1.5-4.6,4.3-4.6s4.3,1.7,4.3,4.6v9.6c0,2.9-1.5,4.6-4.3,4.6
			S-6477.2,2755.6-6477.2,2752.7z M-6471.4,2752.9v-9.9c0-1.3-0.6-1.8-1.5-1.8s-1.5,0.5-1.5,1.8v9.9c0,1.3,0.6,1.8,1.5,1.8
			S-6471.4,2754.2-6471.4,2752.9z"/>
		<path class="st2" d="M-6467.1,2752.7v-1h2.7v1.2c0,1.3,0.6,1.8,1.5,1.8s1.5-0.5,1.5-1.8c0-1.5-0.6-2.5-2.4-4.1
			c-2.4-2.1-3.2-3.6-3.2-5.7c0-2.9,1.5-4.5,4.3-4.5s4.2,1.7,4.2,4.6v0.8h-2.7v-0.9c0-1.3-0.5-1.8-1.4-1.8s-1.4,0.5-1.4,1.7
			c0,1.3,0.6,2.3,2.5,3.9c2.4,2.1,3.1,3.6,3.1,5.8c0,3-1.5,4.6-4.3,4.6C-6465.7,2757.3-6467.1,2755.6-6467.1,2752.7z"/>
	</g>
	<g class="st1">
		<path class="st2" d="M-6548.2,2762.8h4.2c2.9,0,4.3,1.6,4.3,4.5v1.8c0,2.9-1.4,4.5-4.3,4.5h-1.4v7.4h-2.9L-6548.2,2762.8
			L-6548.2,2762.8z M-6544,2771c0.9,0,1.4-0.4,1.4-1.7v-2.2c0-1.3-0.5-1.7-1.4-1.7h-1.4v5.6L-6544,2771L-6544,2771z"/>
		<path class="st2" d="M-6538.2,2762.8h4.2c3,0,4.2,1.4,4.2,4.2v1.1c0,1.9-0.6,3.1-1.9,3.6v0.1c1.4,0.4,1.9,1.8,1.9,3.8v3.2
			c0,0.9,0,1.5,0.3,2.2h-2.9c-0.2-0.5-0.3-0.8-0.3-2.2v-3.3c0-1.7-0.5-2.2-1.8-2.2h-1v7.8h-2.9v-18.3H-6538.2z M-6534.3,2770.6
			c1.1,0,1.7-0.5,1.7-1.9v-1.4c0-1.3-0.4-1.9-1.5-1.9h-1.3v5.2L-6534.3,2770.6L-6534.3,2770.6z"/>
		<path class="st2" d="M-6527.9,2776.7v-9.6c0-2.9,1.5-4.6,4.3-4.6s4.3,1.7,4.3,4.6v9.6c0,2.9-1.5,4.6-4.3,4.6
			S-6527.9,2779.6-6527.9,2776.7z M-6522.1,2776.9v-9.9c0-1.3-0.6-1.8-1.5-1.8s-1.5,0.5-1.5,1.8v9.9c0,1.3,0.6,1.8,1.5,1.8
			S-6522.1,2778.2-6522.1,2776.9z"/>
		<path class="st2" d="M-6517.3,2762.8h4.4c2.9,0,4.3,1.6,4.3,4.5v9.2c0,2.9-1.4,4.5-4.3,4.5h-4.4V2762.8z M-6513,2778.4
			c0.9,0,1.5-0.5,1.5-1.8v-9.5c0-1.3-0.5-1.8-1.5-1.8h-1.5v13h1.5V2778.4z"/>
		<path class="st2" d="M-6506.9,2776.7v-13.9h2.9v14.1c0,1.3,0.5,1.8,1.5,1.8c0.9,0,1.5-0.5,1.5-1.8v-14.1h2.8v13.9
			c0,2.9-1.5,4.6-4.3,4.6S-6506.9,2779.6-6506.9,2776.7z"/>
		<path class="st2" d="M-6496.5,2776.8v-9.8c0-2.8,1.5-4.5,4.2-4.5s4.2,1.7,4.2,4.5v1.9h-2.7v-2.1c0-1.2-0.6-1.7-1.4-1.7
			s-1.4,0.5-1.4,1.7v10.2c0,1.2,0.6,1.7,1.4,1.7s1.4-0.5,1.4-1.7v-2.8h2.7v2.6c0,2.8-1.5,4.5-4.2,4.5S-6496.5,2779.6-6496.5,2776.8z
			"/>
		<path class="st2" d="M-6484.1,2765.4h-3v-2.6h8.8v2.6h-3v15.6h-2.9v-15.6H-6484.1z"/>
		<path class="st2" d="M-6477.2,2776.7v-9.6c0-2.9,1.5-4.6,4.3-4.6s4.3,1.7,4.3,4.6v9.6c0,2.9-1.5,4.6-4.3,4.6
			S-6477.2,2779.6-6477.2,2776.7z M-6471.4,2776.9v-9.9c0-1.3-0.6-1.8-1.5-1.8s-1.5,0.5-1.5,1.8v9.9c0,1.3,0.6,1.8,1.5,1.8
			S-6471.4,2778.2-6471.4,2776.9z"/>
		<path class="st2" d="M-6467.1,2776.7v-1h2.7v1.2c0,1.3,0.6,1.8,1.5,1.8s1.5-0.5,1.5-1.8c0-1.5-0.6-2.5-2.4-4.1
			c-2.4-2.1-3.2-3.6-3.2-5.7c0-2.9,1.5-4.5,4.3-4.5s4.2,1.7,4.2,4.6v0.8h-2.7v-0.9c0-1.3-0.5-1.8-1.4-1.8s-1.4,0.5-1.4,1.7
			c0,1.3,0.6,2.3,2.5,3.9c2.4,2.1,3.1,3.6,3.1,5.8c0,3-1.5,4.6-4.3,4.6C-6465.7,2781.3-6467.1,2779.6-6467.1,2776.7z"/>
	</g>
	<g id="Grupo_3955" transform="translate(-8084.951 2624.26)">
		<path id="Trazado_5254" class="st2" d="M1684.2,163.8c-14.8-3.6-23.8-18.5-20.2-33.2c2.4-10,10.2-17.8,20.2-20.2
			c0.9-0.2,1.5-1.2,1.2-2.1c-0.2-0.9-1.1-1.5-2.1-1.3c-16.6,4-26.8,20.7-22.8,37.3c2.7,11.3,11.5,20,22.8,22.8
			c0.9,0.2,1.8-0.4,2.1-1.3C1685.6,164.9,1685.1,164,1684.2,163.8L1684.2,163.8z"/>
		<path id="Trazado_5255" class="st2" d="M1688.9,106.7v1.2c0,0.9,0.8,1.7,1.7,1.7c12.7,0,23.8,8.7,26.7,21c0.2,0.9,1.1,1.5,2.1,1.3
			c0.9-0.2,1.5-1.1,1.3-2.1c-2.6-11-11.1-19.7-22-22.6c0.3-0.2,0.6-0.5,0.8-0.8c2.3-2.4,3.4-5.7,3-9c-0.1-0.8-0.7-1.4-1.5-1.5
			c-3.2-0.4-6.3,0.6-8.7,2.8v-4.5c0-0.9-0.8-1.7-1.7-1.7s-1.7,0.8-1.7,1.7L1688.9,106.7L1688.9,106.7z M1694.5,101.4
			c1.3-1.3,3-2,4.8-2.1c-0.2,3.7-3.1,6.7-6.8,6.8C1692.5,104.3,1693.2,102.6,1694.5,101.4z"/>
		<path id="Trazado_5256" class="st2" d="M1733.6,135.3c-0.9,0-1.7,0.8-1.7,1.7c0,15.2-12.3,27.5-27.5,27.5
			c-14.5,0-26.5-11.3-27.4-25.8h23.3l-8,8c-0.7,0.7-0.7,1.7-0.1,2.4c0.7,0.7,1.7,0.7,2.4,0.1c0,0,0,0,0.1-0.1l8-8v11.3
			c0,0.9,0.8,1.7,1.7,1.7s1.7-0.8,1.7-1.7v-11.3l8,8c0.7,0.7,1.8,0.7,2.4,0c0.7-0.7,0.7-1.8,0-2.4l-8-8h16.4
			c-1,11.3-10.9,19.8-22.3,18.8c-8.3-0.7-15.3-6.3-17.9-14.2c-0.3-0.9-1.3-1.4-2.2-1.1s-1.4,1.3-1.1,2.2l0,0
			c4.1,12.6,17.6,19.6,30.3,15.5c9.9-3.2,16.7-12.5,16.7-22.9c0-0.9-0.8-1.7-1.7-1.7l0,0h-51.5c-0.9,0-1.7,0.8-1.7,1.7
			c0,17.1,13.8,30.9,30.9,30.9s30.9-13.8,30.9-30.9C1735.3,136.1,1734.6,135.3,1733.6,135.3L1733.6,135.3z"/>
	</g>
</g>
</svg>
