<?xml version="1.0" encoding="utf-8"?>
<!-- Generator: Adobe Illustrator 22.0.1, SVG Export Plug-In . SVG Version: 6.00 Build 0)  -->
<svg version="1.1" id="Capa_1" xmlns="http://www.w3.org/2000/svg" xmlns:xlink="http://www.w3.org/1999/xlink" x="0px" y="0px"
	 viewBox="0 0 400 400" style="enable-background:new 0 0 400 400;" xml:space="preserve">
<style type="text/css">
	.st0{fill:#8EC549;}
	.st1{enable-background:new    ;}
	.st2{fill:#FFFFFF;}
</style>
<title>highlight</title>
<path class="st0" d="M15.1,97.3L274.8,0.6c11.5-4.3,24.4,1.6,28.7,13.1l96.7,259.7c4.3,11.5-1.6,24.4-13.1,28.7l-259.7,96.7
	c-11.5,4.3-24.4-1.6-28.7-13.1L2,126C-2.3,114.5,3.6,101.6,15.1,97.3z"/>
<g class="st1">
	<path class="st2" d="M64.6,150.1l0.8,2.1l-9.7,3.6l5.5,14.8l11.7-4.3l0.8,2.1l-14,5.2l-13.1-35.5l14-5.2l0.8,2.1l-11.7,4.3
		l5.3,14.3L64.6,150.1z"/>
	<path class="st2" d="M79.5,166.3l-2.1,0.8l-13.1-35.5l3-1.1l21.7,26l-11.1-30l2.1-0.8l13.1,35.5l-2.6,1l-22.8-27.5L79.5,166.3z"/>
	<path class="st2" d="M97.7,150.6l1.1,8.5l-2.1,0.8l-5.4-38.4l3.4-1.3l21,32.6l-2.3,0.9l-4.7-7.2L97.7,150.6z M97.3,148.4l10.3-3.8
		l-13.7-21L97.3,148.4z"/>
	<path class="st2" d="M131.2,147.1l-2.3,0.9l-19.1-28.6l11.6,31.4l-2.1,0.8l-13.1-35.5l3.3-1.2l19.1,28.6l-4.2-34.1l3.3-1.2
		l13.1,35.5l-2.2,0.8L127,112.9L131.2,147.1z"/>
	<path class="st2" d="M139.3,103.5c1.4-0.5,2.6-0.7,3.8-0.6c1.2,0.1,2.2,0.4,3.2,1c0.9,0.6,1.8,1.3,2.5,2.3c0.7,1,1.3,2.1,1.8,3.4
		l6.7,18.2c0.5,1.3,0.8,2.5,0.9,3.7s0,2.3-0.4,3.4c-0.3,1-0.9,2-1.8,2.8c-0.8,0.8-1.9,1.5-3.3,2s-2.6,0.7-3.8,0.6
		c-1.2-0.1-2.2-0.4-3.1-1c-0.9-0.6-1.7-1.3-2.4-2.3c-0.7-1-1.3-2.1-1.8-3.4l-6.7-18.2c-0.5-1.3-0.8-2.5-0.9-3.7
		c-0.1-1.2,0-2.3,0.3-3.4c0.3-1,0.9-1.9,1.7-2.8C136.9,104.6,138,104,139.3,103.5z M140.1,105.6c-2,0.7-3.1,1.9-3.5,3.4
		c-0.4,1.6-0.2,3.3,0.5,5.3l6.8,18.5c0.7,1.9,1.7,3.4,3,4.3c1.3,1,2.9,1.1,4.9,0.4c2-0.7,3.1-1.9,3.5-3.5c0.4-1.6,0.2-3.3-0.5-5.3
		l-6.8-18.5c-0.7-1.9-1.7-3.4-3.1-4.3C143.7,105,142.1,104.9,140.1,105.6z M140.9,95.1l-2.5,6.4l-1.8,0.7l1.8-6.1L140.9,95.1z"/>
	<path class="st2" d="M158.6,96.7c2.7-1,4.9-1,6.6,0c1.7,1,3,2.7,3.9,5.2l1.1,3.1c1.5,4.1,0.7,7.2-2.4,9.2c2-0.3,3.6,0.1,4.8,1
		c1.3,1,2.2,2.4,3,4.3l2,5.5c0.3,0.7,0.6,1.5,1,2.2c0.4,0.7,0.9,1.3,1.5,1.7l-2.4,0.9c-0.5-0.4-0.9-1-1.3-1.6
		c-0.3-0.6-0.7-1.4-1.1-2.4l-2.1-5.6c-0.4-1.2-1-2.1-1.5-2.8c-0.6-0.7-1.3-1.1-2-1.4c-0.8-0.2-1.6-0.3-2.5-0.2
		c-0.9,0.1-1.8,0.4-2.8,0.7l-3.7,1.4l5.9,15.9l-2.3,0.9l-13.1-35.5L158.6,96.7z M163.7,114.7c1-0.4,1.9-0.8,2.7-1.3
		c0.8-0.5,1.3-1,1.7-1.7c0.4-0.6,0.6-1.4,0.6-2.3c0-0.9-0.2-1.9-0.6-3.1l-1.2-3.3c-0.7-1.9-1.7-3.3-2.9-4c-1.2-0.8-2.8-0.8-4.7-0.1
		l-5,1.9l5.7,15.4L163.7,114.7z"/>
</g>
<g class="st1">
	<path class="st2" d="M184.3,118.6l1.1,8.5l-2.1,0.8L178,89.5l3.4-1.3l21,32.6l-2.3,0.9l-4.7-7.2L184.3,118.6z M183.9,116.4
		l10.3-3.8l-13.7-21L183.9,116.4z"/>
</g>
<g class="st1">
	<path class="st2" d="M210,118l-12.3-33.4l-7.2,2.7l-0.8-2.1l16.8-6.2l0.8,2.1l-7.3,2.7l12.3,33.4L210,118z"/>
	<path class="st2" d="M227.5,89.9l0.8,2.1l-9.7,3.6l5.5,14.8l11.7-4.3l0.8,2.1l-14,5.2l-13.1-35.5l14-5.2l0.8,2.1l-11.7,4.3
		l5.3,14.3L227.5,89.9z"/>
	<path class="st2" d="M242.8,65.6c1.4-0.5,2.6-0.7,3.8-0.7c1.2,0.1,2.2,0.4,3.1,0.9c0.9,0.5,1.7,1.3,2.5,2.3c0.7,1,1.3,2.1,1.8,3.4
		l6.6,17.9c0.5,1.3,0.8,2.6,0.9,3.8c0.1,1.2,0,2.3-0.4,3.3c-0.4,1-1,1.9-1.8,2.7c-0.8,0.8-1.9,1.4-3.3,1.9l-7.8,2.9L235,68.5
		L242.8,65.6z M255.1,99c2-0.7,3.2-1.9,3.6-3.4c0.4-1.5,0.3-3.3-0.5-5.2l-6.7-18.1c-0.7-2-1.8-3.4-3.1-4.3c-1.3-0.9-3-1-4.9-0.3
		l-5.4,2l11.5,31.2L255.1,99z"/>
	<path class="st2" d="M272.6,73.2l0.8,2.1l-9.7,3.6l5.5,14.8l11.7-4.3l0.8,2.1l-14,5.2l-13.1-35.5l14-5.2l0.8,2.1l-11.7,4.3
		l5.3,14.3L272.6,73.2z"/>
</g>
<g class="st1">
	<path class="st2" d="M95.1,270.4l-29.3-79.3l8.8-3.3l26.3,71.3l22.7-8.4l3,8L95.1,270.4z"/>
	<path class="st2" d="M110.3,196.4c-2.3-6.1-2.6-11.5-0.9-16.2c1.7-4.7,5.5-8.2,11.7-10.4c6.1-2.3,11.3-2.2,15.7,0.3
		c4.3,2.5,7.7,6.8,9.9,12.9l15.2,41c2.2,6,2.5,11.4,0.8,16.2c-1.7,4.7-5.6,8.2-11.7,10.5c-6.1,2.3-11.3,2.1-15.7-0.4
		c-4.3-2.5-7.6-6.8-9.8-12.8L110.3,196.4z M134.4,234.6c1.3,3.6,3.2,6.2,5.4,7.6c2.3,1.4,5,1.6,8.2,0.4c3.2-1.2,5.3-3.1,6-5.6
		c0.8-2.6,0.5-5.7-0.9-9.3l-15.5-41.9c-1.3-3.6-3.1-6.2-5.4-7.6c-2.2-1.4-5-1.6-8.2-0.4c-3.2,1.2-5.2,3-6,5.6
		c-0.8,2.6-0.5,5.7,0.8,9.3L134.4,234.6z"/>
	<path class="st2" d="M182.7,147c6.1-2.3,11.3-2.2,15.7,0.3c4.3,2.5,7.7,6.8,9.9,12.9l15.2,41c1.9,5.1,2.4,9.6,1.5,13.5
		c0.8,0.8,1.7,1.3,2.5,1.3c0.9,0.1,2-0.1,3.2-0.6l1.1-0.4l2.9,7.8l-1.5,0.5c-4.8,1.8-8.8,1.3-12-1.4c-1,1.2-2.2,2.3-3.7,3.3
		c-1.4,1-3.1,1.9-5.1,2.6c-6.1,2.3-11.3,2.1-15.7-0.4c-4.3-2.5-7.6-6.8-9.8-12.8l-15.2-41c-2.3-6.1-2.6-11.5-0.9-16.2
		C172.7,152.7,176.6,149.2,182.7,147z M185.7,155c-3.2,1.2-5.2,3-6,5.6c-0.8,2.6-0.5,5.7,0.8,9.3l15.5,41.9c1.3,3.6,3.2,6.2,5.4,7.6
		c2.3,1.4,5,1.6,8.2,0.4c3.2-1.2,5.3-3.1,6-5.6c0.8-2.6,0.5-5.7-0.9-9.3L199.3,163c-1.3-3.6-3.1-6.2-5.4-7.6
		C191.7,153.9,188.9,153.8,185.7,155z"/>
	<path class="st2" d="M240.7,195.3c1.3,3.6,3.1,6.2,5.3,7.6c2.2,1.5,4.9,1.6,8.2,0.4c3.2-1.2,5.1-3,5.9-5.6c0.7-2.5,0.4-5.6-0.9-9.3
		l-22.4-60.6l8.3-3.1l22.2,60.2c2.2,6,2.6,11.4,1.1,16.1c-1.5,4.7-5.3,8.2-11.5,10.5c-6,2.2-11.2,2-15.4-0.6
		c-4.2-2.6-7.5-6.9-9.7-13l-22.2-60.2l8.7-3.2L240.7,195.3z"/>
	<path class="st2" d="M295,146.3l2.9,7.9l-19.4,7.2l10.4,28.2l23.8-8.8l3,8l-32.6,12.1l-29.3-79.3l32.6-12.1l3,8l-23.8,8.8l10,27.1
		L295,146.3z"/>
</g>
<g class="st1">
	<path class="st2" d="M130.3,336.8l-8.6,3.2l-20.3-55l8.6-3.2l8.7,23.6l9.8-3.6l-8.7-23.6l8.8-3.2l20.3,55l-8.8,3.2l-8.7-23.6
		l-9.8,3.6L130.3,336.8z"/>
</g>
<g class="st1">
	<path class="st2" d="M183.2,317.3l-8.7,3.2l-5.2-9.4l-10.6,3.9l2.2,10.5l-7.9,2.9l-11.5-58.2l12.6-4.7L183.2,317.3z M157,307.1
		l8.3-3.1l-14.4-26.3L157,307.1z"/>
</g>
<g class="st1">
	<path class="st2" d="M204.6,286.1l2.7,7.3c1.6,4.5,1.8,8.3,0.5,11.5c-1.3,3.2-4.1,5.6-8.3,7.1c-4.2,1.6-7.9,1.6-10.9,0
		c-3.1-1.6-5.4-4.6-7-9L171,274.3c-1.6-4.4-1.8-8.3-0.5-11.5c1.3-3.2,4.1-5.6,8.3-7.1c4.2-1.6,7.9-1.6,10.9,0c3.1,1.6,5.4,4.6,7,9
		l2,5.3l-8.2,3l-2.2-5.9c-0.7-2-1.7-3.2-2.8-3.8c-1.1-0.5-2.3-0.5-3.7,0c-1.4,0.5-2.3,1.3-2.8,2.4c-0.5,1.1-0.4,2.7,0.3,4.7l11,29.7
		c0.7,2,1.7,3.2,2.8,3.7c1.1,0.5,2.3,0.5,3.7,0c1.4-0.5,2.3-1.3,2.8-2.4c0.5-1.1,0.4-2.6-0.3-4.6l-2.9-7.9L204.6,286.1z"/>
	<path class="st2" d="M214.3,269.6l11.9-4.4l2.9,7.9l-11.9,4.4l5.9,16.1l14.9-5.5l2.9,7.9l-23.6,8.7l-20.3-55l23.6-8.7l2.9,7.9
		l-14.9,5.5L214.3,269.6z"/>
	<path class="st2" d="M258.7,271.3l-8.5-41.2l12-4.4l20.3,55l-8.2,3l-14.6-39.4l8.6,41.6l-8.2,3l-20.8-36.5l14.4,38.9l-7.5,2.8
		l-20.3-55l12-4.4L258.7,271.3z"/>
	<path class="st2" d="M272.6,236.8c-1.6-4.4-1.8-8.3-0.4-11.5c1.4-3.2,4.2-5.6,8.4-7.2c4.2-1.6,7.9-1.6,11.1,0
		c3.1,1.6,5.5,4.6,7.2,9l10.6,28.6c1.6,4.4,1.8,8.3,0.4,11.5c-1.4,3.2-4.2,5.6-8.4,7.2c-4.2,1.6-7.9,1.6-11.1,0
		c-3.1-1.5-5.5-4.5-7.2-9L272.6,236.8z M292,262.7c0.7,2,1.7,3.2,2.8,3.8c1.1,0.5,2.3,0.5,3.7,0c1.4-0.5,2.3-1.3,2.8-2.4
		c0.5-1.1,0.4-2.7-0.3-4.7l-11-29.7c-0.7-2-1.7-3.2-2.8-3.8c-1.1-0.5-2.3-0.5-3.7,0c-1.4,0.5-2.3,1.3-2.8,2.4
		c-0.5,1.1-0.4,2.7,0.3,4.7L292,262.7z"/>
	<path class="st2" d="M303.3,225.4c-1.6-4.4-1.8-8.3-0.6-11.4c1.2-3.2,4-5.5,8.2-7.1c4.2-1.6,7.9-1.6,10.9,0c3,1.6,5.3,4.6,7,9.1
		l0.6,1.7l-8.2,3l-0.8-2.3c-0.7-2-1.6-3.2-2.7-3.8c-1.1-0.5-2.3-0.5-3.6,0c-1.4,0.5-2.3,1.3-2.7,2.4c-0.5,1.1-0.3,2.6,0.4,4.6
		c0.7,1.9,1.7,3.4,3.1,4.5c1.4,1.1,2.9,2.1,4.6,2.9c1.7,0.8,3.6,1.6,5.5,2.4c1.9,0.8,3.8,1.7,5.6,2.7c1.8,1.1,3.5,2.4,5.1,4
		s2.8,3.7,3.8,6.4c1.6,4.5,1.8,8.3,0.5,11.5c-1.3,3.2-4.1,5.6-8.3,7.1c-4.2,1.6-7.9,1.6-10.9,0c-3.1-1.6-5.4-4.6-7-9l-1.2-3.4l8.2-3
		l1.5,3.9c0.7,2,1.7,3.2,2.8,3.7c1.1,0.5,2.3,0.5,3.7,0c1.4-0.5,2.3-1.3,2.8-2.4c0.5-1.1,0.4-2.6-0.3-4.6c-0.7-1.9-1.7-3.4-3.1-4.5
		c-1.4-1.1-2.9-2.1-4.6-2.9c-1.7-0.8-3.6-1.6-5.5-2.4c-1.9-0.8-3.8-1.7-5.6-2.7c-1.8-1.1-3.5-2.4-5.1-4
		C305.6,230.2,304.3,228,303.3,225.4z"/>
</g>
</svg>
