<?xml version="1.0" encoding="utf-8"?>
<!-- Generator: Adobe Illustrator 22.0.1, SVG Export Plug-In . SVG Version: 6.00 Build 0)  -->
<svg version="1.1" id="Capa_1" xmlns="http://www.w3.org/2000/svg" xmlns:xlink="http://www.w3.org/1999/xlink" x="0px" y="0px"
	 viewBox="0 0 253.3 132.5" style="enable-background:new 0 0 253.3 132.5;" xml:space="preserve">
<style type="text/css">
	.st0{fill:#D76335;}
	.st1{enable-background:new    ;}
	.st2{fill:#FFFFFF;}
</style>
<g id="flavorcup_boton_nuestra_marca" transform="translate(6586.991 -2825.96)">
	<g id="boton_nuestra_marca" transform="translate(-6456.991 2825.96)">
		<path id="Trazado_3321" class="st0" d="M-130,0h233l20.3,18.7v95.5L103,132.5h-233V0z"/>
	</g>
	<g class="st1">
		<path class="st2" d="M-6529,2873.8h3.6l2.8,10.9h0.1v-10.9h2.5v18.2h-2.9l-3.4-13.3h-0.1v13.3h-2.5v-18.2H-6529z"/>
		<path class="st2" d="M-6518,2887.7v-13.9h2.9v14.1c0,1.3,0.5,1.8,1.5,1.8s1.5-0.5,1.5-1.8v-14.1h2.8v13.9c0,2.9-1.5,4.6-4.3,4.6
			S-6518,2890.6-6518,2887.7z"/>
		<path class="st2" d="M-6507.5,2873.8h7.8v2.6h-4.9v4.8h3.9v2.6h-3.9v5.6h4.9v2.6h-7.8V2873.8z"/>
		<path class="st2" d="M-6498.5,2887.7v-1h2.7v1.2c0,1.3,0.6,1.8,1.5,1.8s1.5-0.5,1.5-1.8c0-1.5-0.6-2.5-2.4-4.1
			c-2.4-2.1-3.2-3.6-3.2-5.7c0-2.9,1.5-4.5,4.3-4.5s4.2,1.7,4.2,4.6v0.8h-2.7v-0.9c0-1.3-0.5-1.8-1.4-1.8s-1.4,0.5-1.4,1.7
			c0,1.3,0.6,2.3,2.5,3.9c2.4,2.1,3.1,3.6,3.1,5.8c0,3-1.5,4.6-4.3,4.6S-6498.5,2890.6-6498.5,2887.7z"/>
		<path class="st2" d="M-6486.1,2876.4h-3v-2.6h8.8v2.6h-3v15.6h-2.9v-15.6H-6486.1z"/>
		<path class="st2" d="M-6478.8,2873.8h4.2c3,0,4.2,1.4,4.2,4.2v1.1c0,1.9-0.6,3.1-1.9,3.6v0.1c1.4,0.4,1.9,1.8,1.9,3.8v3.2
			c0,0.9,0,1.5,0.3,2.2h-2.9c-0.2-0.5-0.3-0.8-0.3-2.2v-3.3c0-1.7-0.5-2.2-1.8-2.2h-1v7.8h-2.9v-18.3H-6478.8z M-6474.9,2881.6
			c1.1,0,1.7-0.5,1.7-1.9v-1.4c0-1.3-0.4-1.9-1.5-1.9h-1.3v5.2L-6474.9,2881.6L-6474.9,2881.6z"/>
		<path class="st2" d="M-6466.2,2873.8h3.9l3,18.2h-2.9l-0.5-3.6v0.1h-3.2l-0.5,3.6h-2.7L-6466.2,2873.8z M-6463,2886l-1.3-9h-0.1
			l-1.2,9H-6463z"/>
	</g>
	<g class="st1">
		<path class="st2" d="M-6513.2,2897.8h4.1l1.8,13h0.1l1.8-13h4.1v18.2h-2.7v-13.8h-0.1l-2.1,13.8h-2.4l-2.1-13.8h-0.1v13.8h-2.5
			v-18.2H-6513.2z"/>
		<path class="st2" d="M-6497,2897.8h3.9l3,18.2h-2.9l-0.5-3.6v0.1h-3.3l-0.5,3.6h-2.7L-6497,2897.8z M-6493.9,2910l-1.3-9h-0.1
			l-1.2,9H-6493.9z"/>
		<path class="st2" d="M-6488.8,2897.8h4.2c3,0,4.2,1.4,4.2,4.2v1.1c0,1.9-0.6,3.1-1.9,3.6v0.1c1.4,0.4,1.9,1.8,1.9,3.8v3.2
			c0,0.9,0,1.5,0.3,2.2h-2.9c-0.2-0.5-0.3-0.8-0.3-2.2v-3.3c0-1.7-0.5-2.2-1.8-2.2h-1v7.8h-2.9v-18.3H-6488.8z M-6484.9,2905.6
			c1.1,0,1.7-0.5,1.7-1.9v-1.4c0-1.3-0.4-1.9-1.5-1.9h-1.3v5.2L-6484.9,2905.6L-6484.9,2905.6z"/>
		<path class="st2" d="M-6478.5,2911.8v-9.8c0-2.8,1.5-4.5,4.2-4.5c2.8,0,4.2,1.7,4.2,4.5v1.9h-2.7v-2.1c0-1.2-0.6-1.7-1.4-1.7
			c-0.9,0-1.4,0.5-1.4,1.7v10.2c0,1.2,0.6,1.7,1.4,1.7c0.9,0,1.4-0.5,1.4-1.7v-2.8h2.7v2.6c0,2.8-1.5,4.5-4.2,4.5
			C-6477,2916.3-6478.5,2914.6-6478.5,2911.8z"/>
		<path class="st2" d="M-6466.2,2897.8h3.9l3,18.2h-2.9l-0.5-3.6v0.1h-3.2l-0.5,3.6h-2.7L-6466.2,2897.8z M-6463,2910l-1.3-9h-0.1
			l-1.2,9H-6463z"/>
	</g>
	<g id="Grupo_3954" transform="translate(-7285.659 3268.93)">
		<g id="Grupo_3940" transform="translate(859.659 -380.291)">
			<path id="Trazado_5265" class="st2" d="M55.4,8.8h-51C2,8.8,0,6.8,0,4.4l0,0C0,2,2,0,4.4,0l0,0h51c2.4,0,4.4,2,4.4,4.4l0,0
				C59.8,6.8,57.8,8.8,55.4,8.8L55.4,8.8z M4.4,2.6c-1,0-1.8,0.8-1.8,1.8s0.8,1.8,1.8,1.8h51c1,0,1.8-0.8,1.8-1.8s-0.8-1.8-1.8-1.8
				C55.4,2.6,4.4,2.6,4.4,2.6z"/>
		</g>
		<g id="Grupo_3941" transform="translate(861.53 -373.2)">
			<path id="Trazado_5266" class="st2" d="M28,31.1H7.2c-0.6,0-1.2-0.4-1.3-1L0,0.5L2.5,0l5.7,28.5H28V31.1z"/>
		</g>
		<g id="Grupo_3942" transform="translate(889.542 -373.2)">
			<path id="Trazado_5267" class="st2" d="M20.8,31.1H0v-2.6h19.7L25.5,0L28,0.5L22.1,30C22,30.6,21.4,31.1,20.8,31.1z"/>
		</g>
		<g id="Grupo_3943" transform="translate(879.268 -420.93)">
			<path id="Trazado_5268" class="st2" d="M9.8,19.1c-0.1,0-0.3,0-0.4,0C1.5,19,0.1,15.7,0,13.8C-0.1,11,1.8,8.6,4.5,7.9
				C8.3,7.4,8,1.4,8,1.4c0-0.5,0.3-1,0.7-1.2c0.5-0.2,1-0.1,1.4,0.2c3,2.7,5.8,5.7,8.4,8.8c1.9,2.5,2.4,4.7,1.5,6.5
				C19,17.9,15.6,19.1,9.8,19.1z M10.4,4.1c-0.5,2.8-2,5.9-5.6,6.4c-1.3,0.5-2.2,1.7-2.2,3.1c0.1,1.7,2.7,2.8,6.8,2.8
				c6.7,0.1,8.1-1.4,8.4-2c0.5-1.1-0.6-2.8-1.3-3.8C14.6,8.4,12.6,6.2,10.4,4.1L10.4,4.1z"/>
		</g>
		<g id="Grupo_3944" transform="translate(908.104 -420.847)">
			<path id="Trazado_5269" class="st2" d="M5.9,29.9l-2.3-1.1L15.4,4.3L13.3,3L2.2,20.4L0,19L11.8,0.6c0.4-0.6,1.1-0.8,1.7-0.4
				l4.2,2.4c0.6,0.3,0.8,1.1,0.5,1.7L5.9,29.9z"/>
		</g>
		<g id="Grupo_3945" transform="translate(911.147 -389.609)">
			<path id="Trazado_5270" class="st2" d="M3.7,9.1l-2-1.7c0.5-0.5,0.8-1.2,0.8-1.9c0-1.4-1.4-2.6-2.6-3.4L1.4,0
				c3.1,2,3.8,4.1,3.8,5.5C5.1,6.9,4.6,8.1,3.7,9.1z"/>
		</g>
		<g id="Grupo_3946" transform="translate(862.746 -389.741)">
			<path id="Trazado_5271" class="st2" d="M1.4,9.1C0.5,8.2,0,6.9,0,5.7C0,4.2,0.7,2.1,4,0l1.4,2.2C4.1,3,2.6,4.2,2.6,5.7
				c0,0.7,0.3,1.3,0.8,1.8L1.4,9.1z"/>
		</g>
		<g id="Grupo_3947" transform="translate(882.48 -396.484)">
			<path id="Trazado_5272" class="st2" d="M7.1,13.9c-2.4,0-4.7-0.2-7.1-0.5l0.4-2.6c2.2,0.3,4.5,0.4,6.7,0.4
				c11.4,0,18.4-3.4,18.4-5.9c0-1-1.1-2.1-3.1-3.1L23.5,0C27.2,1.9,28,4,28,5.4C28,10.9,17.2,13.9,7.1,13.9z"/>
		</g>
		<g id="Grupo_3948" transform="translate(868.58 -397.007)">
			<path id="Trazado_5273" class="st2" d="M3.9,11C0.7,9.2,0,7.2,0,5.9c0-1.6,1-4,5.7-5.9l1,2.4C4.1,3.5,2.6,4.8,2.6,5.9
				c0,0.9,0.9,1.9,2.5,2.8L3.9,11z"/>
		</g>
		<g id="Grupo_3949" transform="translate(900.15 -405.5)">
			<path id="Trazado_5274" class="st2" d="M3.1,9L1.5,6.9C2,6.5,2.9,5.8,2.9,5c0-0.9-1.1-1.9-2.9-2.7L1.1,0c3.6,1.7,4.4,3.7,4.4,5
				C5.4,6,5,7.5,3.1,9z"/>
		</g>
		<g id="Grupo_3950" transform="translate(873.473 -405.403)">
			<path id="Trazado_5275" class="st2" d="M16.1,12.1C8.3,12.1,0,9.6,0,4.9C0,3.6,0.7,1.6,4.2,0l1.1,2.3C3.6,3.1,2.6,4.1,2.6,4.9
				c0,1.9,5.2,4.6,13.5,4.6c1.7,0,3.4-0.1,5.2-0.4l0.4,2.6C19.8,12,17.9,12.1,16.1,12.1z"/>
		</g>
	</g>
</g>
</svg>
