<?xml version="1.0" encoding="utf-8"?>
<!-- Generator: Adobe Illustrator 22.0.1, SVG Export Plug-In . SVG Version: 6.00 Build 0)  -->
<svg version="1.1" id="Capa_1" xmlns="http://www.w3.org/2000/svg" xmlns:xlink="http://www.w3.org/1999/xlink" x="0px" y="0px"
	 viewBox="0 0 400 400" style="enable-background:new 0 0 400 400;" xml:space="preserve">
<style type="text/css">
	.st0{fill:#EE1C52;}
	.st1{enable-background:new    ;}
	.st2{fill:#FFFFFF;}
</style>
<title>highlight</title>
<path class="st0" d="M80.9,0.5L381.6,55c12.1,2.2,20.1,13.8,17.9,25.8L345,381.6c-2.2,12.1-13.8,20.1-25.8,17.9L18.4,345
	c-12.1-2.2-20.1-13.8-17.9-25.8L55,18.4C57.2,6.3,68.8-1.7,80.9,0.5z"/>
<g class="st1">
	<path class="st2" d="M111.5,57.3c3,0.5,5.4,1.5,7.4,2.9c1.9,1.4,3.4,3.1,4.5,5.1c1.1,2,1.7,4.3,1.9,6.8c0.2,2.5,0,5.2-0.5,8
		l-1.2,6.5l-4.9-0.9l1.2-6.8c0.4-2.1,0.5-4,0.4-5.9c-0.1-1.9-0.5-3.5-1.2-5.1c-0.7-1.5-1.8-2.8-3.1-3.8c-1.4-1-3.1-1.7-5.3-2.1
		c-2.2-0.4-4-0.3-5.7,0.1c-1.6,0.5-3,1.3-4.2,2.5c-1.2,1.2-2.2,2.6-2.9,4.3c-0.7,1.7-1.3,3.6-1.7,5.7l-7.4,40.5
		c-0.4,2.1-0.5,4-0.4,5.9c0.1,1.9,0.5,3.5,1.2,5c0.7,1.5,1.8,2.7,3.1,3.7c1.3,1,3.1,1.7,5.3,2.1c2.2,0.4,4,0.3,5.7-0.1
		c1.6-0.5,3-1.3,4.2-2.4c1.2-1.1,2.2-2.5,2.9-4.2c0.7-1.7,1.3-3.6,1.7-5.7l1.7-9.2l4.9,0.9l-1.6,8.9c-0.5,2.8-1.3,5.4-2.4,7.7
		c-1.1,2.3-2.4,4.2-4.1,5.7c-1.7,1.5-3.7,2.6-6,3.2c-2.3,0.6-4.9,0.7-7.9,0.1c-3-0.5-5.4-1.5-7.4-2.9c-1.9-1.4-3.4-3.1-4.5-5.1
		c-1.1-2-1.7-4.3-1.9-6.8c-0.2-2.5,0-5.2,0.5-8l7.2-39.9c0.5-2.8,1.3-5.4,2.4-7.7c1.1-2.3,2.4-4.2,4.1-5.7c1.7-1.5,3.7-2.6,6-3.2
		C105.9,56.8,108.5,56.7,111.5,57.3z"/>
	<path class="st2" d="M132.7,81.5c0.5-2.8,1.3-5.4,2.4-7.7c1.1-2.3,2.5-4.2,4.2-5.7c1.7-1.5,3.7-2.5,6-3.2c2.3-0.6,5-0.6,8-0.1
		c3,0.5,5.5,1.5,7.5,2.9c2,1.4,3.6,3.1,4.7,5.1c1.1,2,1.8,4.3,2,6.8c0.2,2.5,0.1,5.2-0.4,8l-7.2,39.9c-0.5,2.8-1.3,5.4-2.4,7.7
		c-1.1,2.3-2.5,4.2-4.2,5.7c-1.7,1.5-3.8,2.5-6.1,3.1c-2.4,0.6-5,0.6-8,0.1c-3-0.5-5.4-1.5-7.4-2.9c-2-1.4-3.5-3.1-4.5-5.1
		c-1.1-2-1.7-4.3-1.9-6.8c-0.2-2.5-0.1-5.2,0.4-8L132.7,81.5z M130.6,122.6c-0.8,4.2-0.5,7.9,0.8,11c1.3,3.1,4.1,5.1,8.4,5.8
		c4.3,0.8,7.7,0,10.1-2.5c2.4-2.4,4-5.8,4.7-10l7.4-40.5c0.8-4.2,0.5-7.9-0.9-11s-4.2-5.1-8.5-5.9c-4.3-0.8-7.6,0.1-9.9,2.5
		c-2.3,2.5-3.9,5.8-4.6,10L130.6,122.6z"/>
	<path class="st2" d="M169.5,149l-4.7-0.8l14.1-78l6.7,1.2l11.4,70.1L209,75.6l4.7,0.8l-14.1,78l-5.7-1l-11.8-73.9L169.5,149z"/>
	<path class="st2" d="M218.7,97.1c0.5-2.8,1.3-5.4,2.4-7.7c1.1-2.3,2.5-4.2,4.2-5.7c1.7-1.5,3.7-2.5,6-3.2c2.3-0.6,5-0.6,8-0.1
		c3,0.5,5.5,1.5,7.5,2.9c2,1.4,3.6,3.1,4.7,5.1c1.1,2,1.8,4.3,2,6.8c0.2,2.5,0.1,5.2-0.4,8l-7.2,39.9c-0.5,2.8-1.3,5.4-2.4,7.7
		c-1.1,2.3-2.5,4.2-4.2,5.7c-1.7,1.5-3.8,2.5-6.1,3.1c-2.4,0.6-5,0.6-8,0.1c-3-0.5-5.4-1.5-7.4-2.9c-2-1.4-3.5-3.1-4.5-5.1
		c-1.1-2-1.7-4.3-1.9-6.8c-0.2-2.5-0.1-5.2,0.4-8L218.7,97.1z M216.5,138.2c-0.8,4.2-0.5,7.9,0.8,11c1.3,3.1,4.1,5.1,8.4,5.8
		c4.3,0.8,7.7,0,10.1-2.5c2.4-2.4,4-5.8,4.7-10l7.4-40.5c0.8-4.2,0.5-7.9-0.9-11c-1.4-3.1-4.2-5.1-8.5-5.9c-4.3-0.8-7.6,0.1-9.9,2.5
		c-2.3,2.5-3.9,5.8-4.6,10L216.5,138.2z"/>
	<path class="st2" d="M281.5,88.1c3,0.5,5.4,1.5,7.4,2.9c1.9,1.4,3.4,3.1,4.5,5.1c1.1,2,1.7,4.3,1.9,6.8c0.2,2.5,0,5.2-0.5,8
		l-1.2,6.5l-4.9-0.9l1.2-6.8c0.4-2.1,0.5-4,0.4-5.9c-0.1-1.9-0.5-3.5-1.2-5.1c-0.7-1.5-1.8-2.8-3.1-3.8c-1.4-1-3.1-1.7-5.3-2.1
		c-2.2-0.4-4-0.3-5.7,0.1c-1.6,0.5-3,1.3-4.2,2.5c-1.2,1.2-2.2,2.6-2.9,4.3c-0.7,1.7-1.3,3.6-1.7,5.7l-7.4,40.5
		c-0.4,2.1-0.5,4-0.4,5.9c0.1,1.9,0.5,3.5,1.2,5c0.7,1.5,1.8,2.7,3.1,3.7c1.3,1,3.1,1.7,5.3,2.1c2.2,0.4,4,0.3,5.7-0.1
		c1.6-0.5,3-1.3,4.2-2.4c1.2-1.1,2.2-2.5,2.9-4.2c0.7-1.7,1.3-3.6,1.7-5.7l1.7-9.2l4.9,0.9l-1.6,8.9c-0.5,2.8-1.3,5.4-2.4,7.7
		c-1.1,2.3-2.4,4.2-4.1,5.7c-1.7,1.5-3.7,2.6-6,3.2c-2.3,0.6-4.9,0.7-7.9,0.1c-3-0.5-5.4-1.5-7.4-2.9c-1.9-1.4-3.4-3.1-4.5-5.1
		c-1.1-2-1.7-4.3-1.9-6.8c-0.2-2.5,0-5.2,0.5-8l7.2-39.9c0.5-2.8,1.3-5.4,2.4-7.7c1.1-2.3,2.4-4.2,4.1-5.7c1.7-1.5,3.7-2.6,6-3.2
		C275.9,87.6,278.5,87.6,281.5,88.1z"/>
	<path class="st2" d="M326.4,134.2l-0.8,4.7l-21.3-3.9l-5.9,32.5l25.6,4.6l-0.8,4.7l-30.7-5.6l14.1-78l30.7,5.6l-0.8,4.7l-25.6-4.6
		l-5.7,31.4L326.4,134.2z"/>
</g>
<g class="st1">
	<path class="st2" d="M95.1,240.3l-8.3-1.5l-1.7-64.1l-11.2,61.9l-7.5-1.4l14.1-77.6l12.1,2.2l1.5,64.3l23.5-59.7l12.1,2.2
		l-14.1,77.6l-8.2-1.5l11.3-62.4L95.1,240.3z"/>
	<path class="st2" d="M136,231.7l-5.8,15.1l-8-1.4l28.9-74.9l12.5,2.3l0.8,80.3l-8.6-1.6l-0.2-16.2L136,231.7z M138.5,224.5
		l17.3,3.1l-0.6-46.4L138.5,224.5z M170.7,158l-12.3,9.6l-6.1-1.1l9.8-10L170.7,158z"/>
	<path class="st2" d="M201.7,178.8c5.9,1.1,10,3.6,12.1,7.6c2.2,4,2.7,9,1.6,14.9l-0.4,2.1l-8.2-1.5l0.5-2.5
		c0.6-3.5,0.4-6.4-0.6-8.6c-1.1-2.2-3.1-3.5-6.2-4.1c-3.1-0.6-5.5,0-7.3,1.7c-1.8,1.7-2.9,4.2-3.6,7.7c-0.5,2.9-0.3,5.5,0.6,7.9
		c0.9,2.4,2.2,4.6,3.7,6.8c1.6,2.2,3.4,4.3,5.3,6.5c1.9,2.1,3.7,4.4,5.2,6.8c1.5,2.4,2.7,5.1,3.5,7.9c0.8,2.9,0.9,6.1,0.2,9.7
		c-1.1,5.9-3.4,10.4-6.8,13.4c-3.5,3-8.2,3.9-14.2,2.9c-6-1.1-10.1-3.6-12.2-7.7c-2.2-4-2.7-9-1.6-14.9l0.8-4.4l8.1,1.5l-0.9,4.9
		c-0.6,3.5-0.4,6.4,0.7,8.6c1.1,2.2,3.2,3.6,6.3,4.1c3.1,0.6,5.6,0,7.4-1.6c1.8-1.7,3.1-4.3,3.7-7.8c0.5-2.9,0.3-5.5-0.6-7.8
		c-0.9-2.3-2.2-4.6-3.8-6.8c-1.6-2.2-3.3-4.3-5.2-6.4c-1.9-2.1-3.6-4.4-5.2-6.8c-1.5-2.4-2.7-5.1-3.5-7.9c-0.8-2.9-0.9-6.1-0.2-9.7
		c1.1-6,3.3-10.5,6.8-13.4C191.2,178.7,195.9,177.8,201.7,178.8z"/>
	<path class="st2" d="M261.9,190.5c6.1,1.1,10.2,3.6,12.4,7.6c2.2,4,2.8,8.9,1.7,14.9l-7.1,39.1c-1.1,6-3.4,10.4-6.8,13.3
		c-3.5,2.9-8.2,3.8-14.3,2.7l-18.2-3.3l14.1-77.6L261.9,190.5z M249.1,260.2c3.1,0.6,5.6,0,7.4-1.6c1.9-1.6,3.1-4.2,3.8-7.7
		l7.2-39.9c0.6-3.5,0.4-6.4-0.8-8.6c-1.2-2.2-3.3-3.5-6.5-4.1l-9.3-1.7l-11.2,61.9L249.1,260.2z"/>
	<path class="st2" d="M309,234.6l-1.4,7.8l-19-3.4l-5,27.6l23.3,4.2l-1.4,7.9l-31.9-5.8l14.1-77.6l31.9,5.8l-1.4,7.9l-23.3-4.2
		l-4.8,26.5L309,234.6z"/>
</g>
<g class="st1">
	<path class="st2" d="M67.6,266.9L60.4,307l-7.8-1.4l10-55.3l10.9,2l2.9,34.7l6-33.1l7.7,1.4l-10,55.3l-8.9-1.6L67.6,266.9z"/>
	<path class="st2" d="M93.3,269.6c0.8-4.5,2.6-7.7,5.3-9.7c2.7-2,6.2-2.6,10.4-1.8c4.3,0.8,7.3,2.6,9.1,5.4
		c1.8,2.8,2.3,6.5,1.5,10.9l-5.2,28.8c-0.8,4.5-2.6,7.7-5.3,9.7c-2.7,2-6.2,2.6-10.4,1.8c-4.3-0.8-7.3-2.6-9.1-5.4
		c-1.8-2.8-2.3-6.4-1.5-10.9L93.3,269.6z M96.7,300.4c-0.4,2-0.2,3.5,0.5,4.4c0.7,1,1.7,1.6,3.1,1.8c1.4,0.2,2.5,0,3.5-0.6
		c1-0.7,1.6-2,2-4l5.4-29.9c0.4-2,0.2-3.5-0.5-4.4c-0.7-1-1.7-1.6-3.1-1.8c-1.4-0.2-2.5,0-3.5,0.6c-1,0.7-1.6,2-2,4L96.7,300.4z"/>
	<path class="st2" d="M124.2,275.2c0.8-4.5,2.5-7.7,5.1-9.7c2.6-2,6-2.6,10.3-1.9c4.3,0.8,7.2,2.6,8.9,5.3c1.7,2.8,2.1,6.4,1.3,10.9
		l-0.3,1.7l-8.2-1.5l0.4-2.3c0.4-2,0.2-3.5-0.4-4.4c-0.6-1-1.6-1.6-3-1.8c-1.4-0.2-2.5,0-3.4,0.6c-0.9,0.7-1.5,2-1.9,4
		c-0.3,1.9-0.2,3.6,0.4,5.2c0.6,1.6,1.4,3.2,2.4,4.7c1,1.5,2.2,3.1,3.4,4.6c1.2,1.6,2.3,3.2,3.3,5c1,1.8,1.7,3.7,2.2,5.8
		c0.5,2.1,0.5,4.5,0,7.1c-0.8,4.5-2.5,7.7-5.1,9.7c-2.6,2-6.1,2.6-10.3,1.8c-4.3-0.8-7.3-2.6-9-5.3c-1.8-2.8-2.2-6.4-1.4-10.9
		l0.6-3.4l8.2,1.5l-0.7,4c-0.4,2-0.2,3.5,0.5,4.4c0.7,0.9,1.7,1.5,3.1,1.8c1.4,0.2,2.5,0.1,3.5-0.6c1-0.6,1.6-2,2-4
		c0.3-1.9,0.2-3.6-0.4-5.2c-0.6-1.6-1.4-3.2-2.4-4.7c-1-1.5-2.2-3.1-3.4-4.6c-1.2-1.6-2.3-3.2-3.3-5c-1-1.8-1.7-3.7-2.2-5.8
		C123.7,280.2,123.7,277.8,124.2,275.2z"/>
	<path class="st2" d="M154.1,280.6c0.8-4.5,2.6-7.7,5.3-9.7c2.7-2,6.2-2.6,10.4-1.8c4.3,0.8,7.3,2.6,9.1,5.4
		c1.8,2.8,2.3,6.4,1.5,10.9l-5.2,28.8c-0.8,4.5-2.6,7.7-5.3,9.7c-2.7,2-6.2,2.6-10.4,1.8c-4.3-0.8-7.3-2.6-9.1-5.4
		c-1.8-2.8-2.3-6.4-1.5-10.9L154.1,280.6z M157.5,311.5c-0.4,2-0.2,3.5,0.5,4.4c0.7,1,1.7,1.6,3.1,1.8c1.4,0.2,2.5,0,3.5-0.6
		c1-0.7,1.6-2,2-4l5.4-29.9c0.4-2,0.2-3.5-0.5-4.4c-0.7-1-1.7-1.6-3.1-1.8c-1.4-0.2-2.5,0-3.5,0.6c-1,0.7-1.6,2-2,4L157.5,311.5z"/>
	<path class="st2" d="M186,272.7l26.9,4.9l-1.4,7.9l-9.1-1.6l-8.6,47.4l-8.7-1.6l8.6-47.4l-9.1-1.6L186,272.7z"/>
	<path class="st2" d="M224.8,336.8c0-0.4-0.1-0.8-0.1-1.1c0-0.3-0.1-0.7-0.1-1.2c0-0.5,0.1-1.1,0.2-1.8c0.1-0.7,0.3-1.7,0.5-2.8
		l1.6-8.7c0.5-2.6,0.3-4.5-0.4-5.7c-0.7-1.2-2.1-2-4.1-2.4l-3-0.5l-4.1,22.5l-8.7-1.6l10-55.3l13.1,2.4c4.5,0.8,7.6,2.5,9.3,4.9
		c1.6,2.5,2.1,5.8,1.3,10.1l-0.8,4.3c-1,5.7-3.6,9.1-7.7,10.2c2,1.3,3.3,3,3.7,5.2c0.4,2.2,0.4,4.7-0.1,7.6l-1.5,8.5
		c-0.2,1.4-0.4,2.6-0.5,3.6c-0.1,1,0,2.1,0.2,3.3L224.8,336.8z M223.9,287.7l-3.1,17l3.4,0.6c1.6,0.3,3,0.1,4.1-0.6
		c1.1-0.7,1.8-2.1,2.2-4.3l1-5.5c0.4-2,0.3-3.5-0.3-4.5c-0.5-1-1.6-1.7-3.1-2L223.9,287.7z"/>
	<path class="st2" d="M245.3,297.1c0.8-4.5,2.6-7.7,5.3-9.7c2.7-2,6.2-2.6,10.4-1.8c4.3,0.8,7.3,2.6,9.1,5.4
		c1.8,2.8,2.3,6.5,1.5,10.9l-5.2,28.8c-0.8,4.5-2.6,7.7-5.3,9.7c-2.7,2-6.2,2.6-10.4,1.8c-4.3-0.8-7.3-2.6-9.1-5.4
		c-1.8-2.8-2.3-6.4-1.5-10.9L245.3,297.1z M248.7,328c-0.4,2-0.2,3.5,0.5,4.4c0.7,1,1.7,1.6,3.1,1.8c1.4,0.2,2.5,0,3.5-0.6
		c1-0.7,1.6-2,2-4l5.4-29.9c0.4-2,0.2-3.5-0.5-4.4c-0.7-1-1.7-1.6-3.1-1.8c-1.4-0.2-2.5,0-3.5,0.6c-1,0.7-1.6,2-2,4L248.7,328z"/>
	<path class="st2" d="M276.2,302.7c0.8-4.5,2.5-7.7,5.1-9.7c2.6-2,6-2.6,10.3-1.9c4.3,0.8,7.2,2.6,8.9,5.3c1.7,2.8,2.1,6.4,1.3,10.9
		l-0.3,1.7l-8.2-1.5l0.4-2.3c0.4-2,0.2-3.5-0.4-4.4c-0.6-1-1.6-1.6-3-1.8c-1.4-0.2-2.5,0-3.4,0.6c-0.9,0.7-1.5,2-1.9,4
		c-0.3,1.9-0.2,3.6,0.4,5.2c0.6,1.6,1.4,3.2,2.4,4.7c1,1.5,2.2,3.1,3.4,4.6c1.2,1.6,2.3,3.2,3.3,5c1,1.8,1.7,3.7,2.2,5.8
		c0.5,2.1,0.5,4.5,0,7.1c-0.8,4.5-2.5,7.7-5.1,9.7c-2.6,2-6.1,2.6-10.3,1.8c-4.3-0.8-7.3-2.6-9-5.3c-1.8-2.8-2.2-6.4-1.4-10.9
		l0.6-3.4l8.2,1.5l-0.7,4c-0.4,2-0.2,3.5,0.5,4.4c0.7,0.9,1.7,1.5,3.1,1.8c1.4,0.2,2.5,0.1,3.5-0.6s1.6-2,2-4
		c0.3-1.9,0.2-3.6-0.4-5.2c-0.6-1.6-1.4-3.2-2.4-4.7c-1-1.5-2.2-3.1-3.4-4.6c-1.2-1.6-2.3-3.2-3.3-5c-1-1.8-1.7-3.7-2.2-5.8
		C275.7,307.7,275.7,305.4,276.2,302.7z"/>
</g>
</svg>
