<?xml version="1.0" encoding="utf-8"?>
<!-- Generator: Adobe Illustrator 22.0.1, SVG Export Plug-In . SVG Version: 6.00 Build 0)  -->
<svg version="1.1" id="Capa_1" xmlns="http://www.w3.org/2000/svg" xmlns:xlink="http://www.w3.org/1999/xlink" x="0px" y="0px"
	 viewBox="0 0 253.3 132.5" style="enable-background:new 0 0 253.3 132.5;" xml:space="preserve">
<style type="text/css">
	.st0{fill:#80B9BD;}
	.st1{fill:#FFFFFF;}
	.st2{enable-background:new    ;}
</style>
<g id="flavorcup_boton_nuestros_clientes" transform="translate(6586.991 -3096.569)">
	<g id="boton_nuestros_productos" transform="translate(-6456.991 3096.569)">
		<g id="Grupo_3885" transform="translate(0 0)">
			<path id="Trazado_3310" class="st0" d="M-130,0h233l20.3,18.7v95.5L103,132.5h-233V0z"/>
		</g>
		<g id="Grupo_3925" transform="translate(22.435 41.772)">
			<path id="Trazado_5206" class="st1" d="M64,9.5c-1.4-1.4-3.7-1.5-5.3-0.4c-0.7,0.4-1.3,0.9-1.9,1.5c-1-1.2-2.5-2-4.1-2.3
				c-1.1-0.1-2.3,0.3-3.1,1.1c-1.3,1.2-1.9,2.9-1.6,4.6c0.4,3.3,3.6,7,7.8,9.2c0.6,0.3,1.4,0.3,2,0c3.6-1.9,6.5-4.9,7.5-7.8l0,0
				C66.1,13.4,65.6,11,64,9.5z M62.7,14.6c-0.7,2.2-3,4.6-5.9,6.2c-3.2-1.7-5.8-4.7-6.1-7c-0.2-0.8,0.1-1.7,0.7-2.2
				c0.3-0.3,0.6-0.4,1-0.4h0.1c1,0.1,2.1,1.1,2.9,2.1c0.3,0.4,0.8,0.7,1.4,0.7l0,0c0.5,0,1-0.2,1.4-0.7c0.5-0.7,1.2-1.3,1.9-1.8
				c1.1-0.6,1.6-0.4,2.1,0.1C63,12.3,63.2,13.6,62.7,14.6L62.7,14.6z"/>
			<path id="Trazado_5207" class="st1" d="M16.6,26c0,5.5,4.1,9.9,9.1,9.9s9.1-4.5,9.1-9.9s-4.1-9.9-9.1-9.9S16.6,20.5,16.6,26z
				 M32,26c0,4-2.9,7.2-6.4,7.2S19.3,30,19.3,26s2.9-7.2,6.4-7.2S32,22,32,26z"/>
			<path id="Trazado_5208" class="st1" d="M56.7,0C46.4,0,38.1,6.7,38.1,14.8c0,2.9,1,5.7,2.9,8L37.4,26c-0.8,0.7-0.9,2-0.1,2.9
				c0.5,0.5,1.2,0.8,1.8,0.6L48,28c2.8,1.1,5.7,1.7,8.7,1.7c10.3,0,18.7-6.7,18.7-14.8S67,0,56.7,0z M56.7,27
				c-2.7,0-5.4-0.5-7.8-1.6c-0.4-0.2-0.8-0.2-1.1-0.1L41,26.5l2.3-2.1c0.8-0.7,0.9-2,0.2-2.8c-1.7-1.8-2.6-4.2-2.7-6.7
				c0-6.7,7.2-12.1,16-12.1s16,5.4,16,12.1S65.5,27,56.7,27z"/>
			<path id="Trazado_5209" class="st1" d="M50,54.8c0.7,0,1.3-0.7,1.3-1.4s-0.6-1.2-1.3-1.3h-8.2v-3.4c0-6.8-5.5-12.2-12.2-12.2
				h-7.7C15,36.5,9.6,42,9.6,48.8v3.4H1.3c-0.7,0-1.3,0.7-1.3,1.4s0.6,1.2,1.3,1.3H50V54.8z M39.1,52.1H12.3v-3.4
				c0-5.3,4.3-9.5,9.5-9.5h7.7c5.3,0,9.5,4.3,9.5,9.5L39.1,52.1z"/>
		</g>
	</g>
	<g class="st2">
		<path class="st1" d="M-6545.7,3149.8h3.6l2.8,10.9h0.1v-10.9h2.5v18.2h-2.9l-3.4-13.3h-0.1v13.3h-2.5v-18.2H-6545.7z"/>
		<path class="st1" d="M-6534.7,3163.7v-13.9h2.9v14.1c0,1.3,0.5,1.8,1.5,1.8s1.5-0.5,1.5-1.8v-14.1h2.8v13.9c0,2.9-1.5,4.6-4.3,4.6
			S-6534.7,3166.6-6534.7,3163.7z"/>
		<path class="st1" d="M-6524.1,3149.8h7.8v2.6h-4.9v4.8h3.9v2.6h-3.9v5.6h4.9v2.6h-7.8V3149.8z"/>
		<path class="st1" d="M-6515.1,3163.7v-1h2.7v1.2c0,1.3,0.6,1.8,1.5,1.8s1.5-0.5,1.5-1.8c0-1.5-0.6-2.5-2.4-4.1
			c-2.4-2.1-3.2-3.6-3.2-5.7c0-2.9,1.5-4.5,4.3-4.5s4.2,1.7,4.2,4.6v0.8h-2.7v-0.9c0-1.3-0.5-1.8-1.4-1.8s-1.4,0.5-1.4,1.7
			c0,1.3,0.6,2.3,2.5,3.9c2.4,2.1,3.1,3.6,3.1,5.8c0,3-1.5,4.6-4.3,4.6S-6515.1,3166.6-6515.1,3163.7z"/>
		<path class="st1" d="M-6502.7,3152.4h-3v-2.6h8.8v2.6h-3v15.6h-2.9v-15.6H-6502.7z"/>
		<path class="st1" d="M-6495.5,3149.8h4.2c3,0,4.2,1.4,4.2,4.2v1.1c0,1.9-0.6,3.1-1.9,3.6v0.1c1.4,0.4,1.9,1.8,1.9,3.8v3.2
			c0,0.9,0,1.5,0.3,2.2h-2.9c-0.2-0.5-0.3-0.8-0.3-2.2v-3.3c0-1.7-0.5-2.2-1.8-2.2h-1v7.8h-2.9v-18.3H-6495.5z M-6491.6,3157.6
			c1.1,0,1.7-0.5,1.7-1.9v-1.4c0-1.3-0.4-1.9-1.5-1.9h-1.3v5.2L-6491.6,3157.6L-6491.6,3157.6z"/>
		<path class="st1" d="M-6485.2,3163.7v-9.6c0-2.9,1.5-4.6,4.3-4.6s4.3,1.7,4.3,4.6v9.6c0,2.9-1.5,4.6-4.3,4.6
			S-6485.2,3166.6-6485.2,3163.7z M-6479.4,3163.9v-9.9c0-1.3-0.6-1.8-1.5-1.8s-1.5,0.5-1.5,1.8v9.9c0,1.3,0.6,1.8,1.5,1.8
			S-6479.4,3165.2-6479.4,3163.9z"/>
		<path class="st1" d="M-6475.1,3163.7v-1h2.7v1.2c0,1.3,0.6,1.8,1.5,1.8s1.5-0.5,1.5-1.8c0-1.5-0.6-2.5-2.4-4.1
			c-2.4-2.1-3.2-3.6-3.2-5.7c0-2.9,1.5-4.5,4.3-4.5s4.2,1.7,4.2,4.6v0.8h-2.7v-0.9c0-1.3-0.5-1.8-1.4-1.8s-1.4,0.5-1.4,1.7
			c0,1.3,0.6,2.3,2.5,3.9c2.4,2.1,3.1,3.6,3.1,5.8c0,3-1.5,4.6-4.3,4.6C-6473.7,3168.3-6475.1,3166.6-6475.1,3163.7z"/>
	</g>
	<g class="st2">
		<path class="st1" d="M-6538.2,3187.8v-9.8c0-2.8,1.5-4.5,4.2-4.5s4.2,1.7,4.2,4.5v1.9h-2.7v-2.1c0-1.2-0.6-1.7-1.4-1.7
			s-1.4,0.5-1.4,1.7v10.2c0,1.2,0.6,1.7,1.4,1.7s1.4-0.5,1.4-1.7v-2.8h2.7v2.6c0,2.8-1.5,4.5-4.2,4.5S-6538.2,3190.6-6538.2,3187.8z
			"/>
		<path class="st1" d="M-6528,3173.8h2.9v15.6h4.7v2.6h-7.6V3173.8z"/>
		<path class="st1" d="M-6519.1,3173.8h2.9v18.2h-2.9V3173.8z"/>
		<path class="st1" d="M-6514.1,3173.8h7.8v2.6h-4.9v4.8h3.9v2.6h-3.9v5.6h4.9v2.6h-7.8V3173.8z"/>
		<path class="st1" d="M-6504.7,3173.8h3.6l2.8,10.9h0.1v-10.9h2.5v18.2h-2.9l-3.4-13.3h-0.1v13.3h-2.5v-18.2H-6504.7z"/>
		<path class="st1" d="M-6491.3,3176.4h-3v-2.6h8.8v2.6h-3v15.6h-2.9v-15.6H-6491.3z"/>
		<path class="st1" d="M-6484.1,3173.8h7.8v2.6h-4.9v4.8h3.9v2.6h-3.9v5.6h4.9v2.6h-7.8V3173.8z"/>
		<path class="st1" d="M-6475.1,3187.7v-1h2.7v1.2c0,1.3,0.6,1.8,1.5,1.8s1.5-0.5,1.5-1.8c0-1.5-0.6-2.5-2.4-4.1
			c-2.4-2.1-3.2-3.6-3.2-5.7c0-2.9,1.5-4.5,4.3-4.5s4.2,1.7,4.2,4.6v0.8h-2.7v-0.9c0-1.3-0.5-1.8-1.4-1.8s-1.4,0.5-1.4,1.7
			c0,1.3,0.6,2.3,2.5,3.9c2.4,2.1,3.1,3.6,3.1,5.8c0,3-1.5,4.6-4.3,4.6C-6473.7,3192.3-6475.1,3190.6-6475.1,3187.7z"/>
	</g>
</g>
</svg>
